<svg width="148" height="148" viewBox="0 0 148 148" fill="none" xmlns="http://www.w3.org/2000/svg">
<rect width="148" height="148" rx="15" fill="black"/>
<g filter="url(#filter0_i_28_7)">
<path d="M73.8902 61.7236V23H89.4741C100.167 23 108.836 31.6686 108.836 42.3618V42.3618C108.836 53.055 100.167 61.7236 89.4741 61.7236H73.8902Z" fill="#FFF2DF"/>
</g>
<g filter="url(#filter1_i_28_7)">
<path d="M110.594 118.541C103.743 121.745 95.5917 118.789 92.3877 111.937L73.8902 72.3816V72.3816C87.5929 65.9738 103.896 71.8874 110.304 85.5902L117.199 100.335C120.403 107.186 117.446 115.338 110.594 118.541V118.541Z" fill="#EF6B00"/>
</g>
<g filter="url(#filter2_i_28_7)">
<path d="M51.6949 122.17C44.1314 122.17 38 116.039 38 108.475L38 50.3899C38 35.2629 50.2629 23 65.3899 23V23L65.3899 108.475C65.3899 116.039 59.2584 122.17 51.6949 122.17V122.17Z" fill="#FFB24E"/>
</g>
<defs>
<filter id="filter0_i_28_7" x="73.8902" y="23" width="38.9457" height="38.7236" filterUnits="userSpaceOnUse" color-interpolation-filters="sRGB">
<feFlood flood-opacity="0" result="BackgroundImageFix"/>
<feBlend mode="normal" in="SourceGraphic" in2="BackgroundImageFix" result="shape"/>
<feColorMatrix in="SourceAlpha" type="matrix" values="0 0 0 0 0 0 0 0 0 0 0 0 0 0 0 0 0 0 127 0" result="hardAlpha"/>
<feOffset dx="4"/>
<feGaussianBlur stdDeviation="2"/>
<feComposite in2="hardAlpha" operator="arithmetic" k2="-1" k3="1"/>
<feColorMatrix type="matrix" values="0 0 0 0 0 0 0 0 0 0 0 0 0 0 0 0 0 0 0.25 0"/>
<feBlend mode="normal" in2="shape" result="effect1_innerShadow_28_7"/>
</filter>
<filter id="filter1_i_28_7" x="73.8901" y="69.7963" width="48.6013" height="54.0379" filterUnits="userSpaceOnUse" color-interpolation-filters="sRGB">
<feFlood flood-opacity="0" result="BackgroundImageFix"/>
<feBlend mode="normal" in="SourceGraphic" in2="BackgroundImageFix" result="shape"/>
<feColorMatrix in="SourceAlpha" type="matrix" values="0 0 0 0 0 0 0 0 0 0 0 0 0 0 0 0 0 0 127 0" result="hardAlpha"/>
<feOffset dx="4" dy="4"/>
<feGaussianBlur stdDeviation="2"/>
<feComposite in2="hardAlpha" operator="arithmetic" k2="-1" k3="1"/>
<feColorMatrix type="matrix" values="0 0 0 0 0 0 0 0 0 0 0 0 0 0 0 0 0 0 0.25 0"/>
<feBlend mode="normal" in2="shape" result="effect1_innerShadow_28_7"/>
</filter>
<filter id="filter2_i_28_7" x="38" y="23" width="31.3899" height="103.17" filterUnits="userSpaceOnUse" color-interpolation-filters="sRGB">
<feFlood flood-opacity="0" result="BackgroundImageFix"/>
<feBlend mode="normal" in="SourceGraphic" in2="BackgroundImageFix" result="shape"/>
<feColorMatrix in="SourceAlpha" type="matrix" values="0 0 0 0 0 0 0 0 0 0 0 0 0 0 0 0 0 0 127 0" result="hardAlpha"/>
<feOffset dx="4" dy="4"/>
<feGaussianBlur stdDeviation="2"/>
<feComposite in2="hardAlpha" operator="arithmetic" k2="-1" k3="1"/>
<feColorMatrix type="matrix" values="0 0 0 0 0 0 0 0 0 0 0 0 0 0 0 0 0 0 0.25 0"/>
<feBlend mode="normal" in2="shape" result="effect1_innerShadow_28_7"/>
</filter>
</defs>
</svg>
